<svg width="20" height="20" viewBox="0 0 20 20" fill="none" xmlns="http://www.w3.org/2000/svg">
<path d="M10 0C4.48 0 0 4.48 0 10C0 15.52 4.48 20 10 20C15.52 20 20 15.52 20 10C20 4.48 15.52 0 10 0ZM11 2.07C14.07 2.45 16.57 4.59 17.54 7.43L11 3.65V2.07ZM6 3.08C7.18 2.39 9.33 2.02 9 2.06V9.41L6 11.14V3.08ZM2.63 13.1C2.23 12.14 2 11.1 2 10C2 7.98 2.76 6.14 4 4.73V12.31L2.63 13.1ZM3.64 14.83L10 11.15L13 12.88L6.02 16.91C5.09 16.38 4.28 15.68 3.64 14.83ZM10 18C9.46 18 8.93 17.94 8.42 17.84L15 14.04L16.36 14.82C14.9 16.75 12.6 18 10 18ZM11 9.42V5.96L18 10.01C18 11.11 17.77 12.15 17.37 13.1L11 9.42Z" fill="white"/>
</svg>
